<svg id="ios_share_black_24dp" xmlns="http://www.w3.org/2000/svg" width="34.719" height="34.719" viewBox="0 0 34.719 34.719">
  <path id="Path_57" data-name="Path 57" d="M0,0H34.719V34.719H0Z" fill="none"/>
  <path id="Path_58" data-name="Path 58" d="M21.359,6.786,19.305,8.841l-2.3-2.3V22.7H14.141V6.541l-2.3,2.3L9.786,6.786,15.573,1Zm5.786,7.233V29.932a2.9,2.9,0,0,1-2.893,2.893H6.893A2.892,2.892,0,0,1,4,29.932V14.02a2.883,2.883,0,0,1,2.893-2.893h4.34V14.02H6.893V29.932H24.253V14.02h-4.34V11.126h4.34A2.892,2.892,0,0,1,27.146,14.02Z" transform="translate(1.786 0.447)"/>
</svg>
